<?xml version="1.0" encoding="UTF-8"?>
<svg id="Calque_1" data-name="Calque 1" xmlns="http://www.w3.org/2000/svg" viewBox="0 0 530.3 836.78">
  <defs>
    <style>
      .cls-1 {
        fill: #fff;
      }

      .cls-2 {
        fill: #861a15;
      }
    </style>
  </defs>
  <path d="M526.25,285.65L477.76,2.5c-.39-2.33-2.47-2.5-3.1-2.5H55.71c-.63,0-2.71,.18-3.09,2.46L3.96,286.6c-11.39,69.71,1.98,138.81,37.7,194.67,41.1,62.57,106.46,105.02,179.27,116.37,17.16,2.64,29.63,17.26,29.63,34.74v143.24c.01,18.16-12.9,33.18-30.7,35.72l-134.16,18.34v7.03l358.89,.07,.06-7.11-136.08-19.29c-17.8-2.55-30.72-17.57-30.72-35.73v-143.24c0-16.92,13.02-32.19,29.64-34.74,74.11-11.41,138.14-52.77,180.3-116.48,36.43-55.55,50.09-124.65,38.44-194.55ZM20.87,320.01v-23.18c0-2.04,.43-3.75,.74-5.01,.08-.32,.19-.75,.23-.97v-.59L65.6,35.46c1.65-9.93,9.95-16.89,20.17-16.89H444.6c10.22,0,18.52,6.97,20.18,16.94l41.78,246.65s33.69,257.29-213.92,257.29S33.53,364.35,33.53,364.35l-5.9-13.71c-6.23-16.88-9.96-28.96-6.76-30.63Z"/>
  <path class="cls-2" d="M19.71,323.38s54.5-84.05,173.88-84.05,86.66,112.75,315.7,60.58c0,0,20.63,115.26-52.47,198.97-73.1,83.72-241.71,118.5-343.7,32.42C11.13,445.22,19.71,323.38,19.71,323.38Z"/>
  <g>
    <path d="M190.27,80.35h-13.51v-3.29h26.5v3.29h-8.14l-41.74,119.67h-14.55l-44.16-119.67h-7.97v-3.29h56.63v3.29h-12.3l29.1,86.59,30.14-86.59Z"/>
    <path d="M245.16,115.85v79.32h9.7v3.12h-51.44v-3.12h9.53V118.97h-10.22v-3.12h42.43Zm-15.59-44.16c10.74,0,17.15,5.37,17.15,15.93,0,9.18-5.02,16.28-17.49,16.28-14.03,0-17.32-8.83-17.32-16.11,0-8.49,4.68-16.11,17.67-16.11Z"/>
    <path d="M300.4,115.85v15.93c2.94-8.66,8.66-17.67,25.8-17.67,16.11,0,26.84,7.97,26.84,28.92v52.13h9.7v3.12h-49.01v-3.12h7.1v-56.29c0-14.72-2.08-16.45-6.41-16.45-7.27,0-14.03,10.91-14.03,24.94v47.8h7.45v3.12h-49.19v-3.12h9.52V118.97h-9.52v-3.12h41.74Z"/>
    <path d="M368.98,169.02h2.08c6.41,21.13,16.97,27.19,31.17,27.19,12.82,0,17.67-4.68,17.67-11.26,0-7.79-8.49-9.52-21.65-13.16-13.86-3.81-29.27-9.18-29.27-28.4,0-17.66,12.12-29.27,30.48-29.27,7.62,0,12.82,1.91,17.49,3.98,2.08,.87,2.77,1.39,4.85,1.39,2.6,0,3.81-1.39,6.06-5.71h1.91v26.5h-2.08c-6.24-15.93-15.07-22.51-27.36-22.51-11.43,0-16.11,4.68-16.11,10.04,0,7.97,10.39,9.87,21.82,12.99,13.68,3.64,28.92,9.18,28.92,29.62s-12.82,29.62-32.39,29.62c-8.31,0-14.2-1.73-20.78-5.02-1.04-.69-2.6-1.39-3.29-1.39-2.25,0-4.67,1.56-7.45,6.41h-2.08v-31Z"/>
  </g>
  <polygon class="cls-1" points="151.21 498.99 136.66 498.99 92.5 379.32 84.53 379.32 84.53 376.03 141.17 376.03 141.17 379.32 128.87 379.32 157.96 465.91 188.1 379.32 174.59 379.32 174.59 376.03 201.09 376.03 201.09 379.32 192.95 379.32 151.21 498.99"/>
  <path class="cls-1" d="M138.43,305.69c-5.54-1.52-11.7-3.67-11.7-11.36,0-7.06,4.85-11.7,12.19-11.7,3.05,0,5.12,.76,6.99,1.59,.83,.35,1.11,.55,1.94,.55,1.04,0,1.52-.55,2.42-2.29h.76v10.6h-.83c-2.49-6.37-6.03-9-10.94-9-4.57,0-6.44,1.87-6.44,4.02,0,3.19,4.16,3.95,8.73,5.19,5.47,1.45,11.57,3.67,11.57,11.84s-5.12,11.84-12.95,11.84c-3.32,0-5.68-.69-8.31-2.01-.42-.28-1.04-.55-1.32-.55-.9,0-1.87,.62-2.98,2.56h-.83v-12.4h.83c2.56,8.45,6.79,10.87,12.47,10.87,5.13,0,7.06-1.87,7.06-4.5,0-3.12-3.39-3.81-8.66-5.26Z"/>
  <path class="cls-1" d="M173.55,313.86c2.77,0,4.92-2.84,4.92-8.1v-21.19h-3.19v-1.25h16.07v31.72h3.81v1.25h-15.79l-.76-5.06c-1.32,3.25-3.53,5.75-9.77,5.75s-10.74-3.19-10.74-11.57v-20.85h-3.88v-1.25h16.76v23.76c0,5.89,.83,6.79,2.56,6.79Z"/>
  <path class="cls-1" d="M196.55,284.57v-1.25h16.69v6.65c1.25-4.92,5.13-7.34,9.28-7.34s7.34,2.15,7.34,7.41c0,3.95-2.08,6.58-5.82,6.58-4.64,0-6.86-2.91-5.4-7.83h2.49c1.39-2.84,0-3.53-1.45-3.53-3.32,0-6.44,4.99-6.44,11.22v18.56h4.92v1.25h-21.61v-1.25h3.81v-30.47h-3.81Z"/>
  <path class="cls-1" d="M244.55,386.59c0,9.18-5.02,16.28-17.49,16.28-14.03,0-17.32-8.83-17.32-16.11,0-8.49,4.68-16.11,17.67-16.11,10.74,0,17.15,5.37,17.15,15.93Z"/>
  <polygon class="cls-1" points="252.69 497.26 201.25 497.26 201.25 494.14 210.78 494.14 210.78 417.94 200.56 417.94 200.56 414.82 242.99 414.82 242.99 494.14 252.69 494.14 252.69 497.26"/>
  <path class="cls-1" d="M360.58,497.26h-49.01v-3.12h7.1v-56.29c0-14.72-2.08-16.45-6.41-16.45-7.27,0-14.03,10.91-14.03,24.94v47.8h7.45v3.12h-49.19v-3.12h9.52v-76.2h-9.52v-3.12h41.74v15.93c2.94-8.66,8.66-17.67,25.8-17.67,16.11,0,26.84,7.97,26.84,28.92v52.13h9.7v3.12Z"/>
  <path class="cls-1" d="M400.41,498.99c-8.31,0-14.2-1.73-20.78-5.02-1.04-.69-2.6-1.39-3.29-1.39-2.25,0-4.67,1.56-7.45,6.41h-2.08v-31h2.08c6.41,21.13,16.97,27.19,31.17,27.19,12.82,0,17.67-4.68,17.67-11.26,0-7.79-8.49-9.52-21.65-13.16-13.86-3.81-29.27-9.18-29.27-28.4,0-17.66,12.12-29.27,30.48-29.27,7.62,0,12.82,1.91,17.49,3.98,2.08,.87,2.77,1.39,4.85,1.39,2.6,0,3.81-1.39,6.06-5.71h1.91v26.5h-2.08c-6.24-15.93-15.07-22.51-27.36-22.51-11.43,0-16.11,4.68-16.11,10.04,0,7.97,10.39,9.87,21.82,12.99,13.68,3.64,28.92,9.18,28.92,29.62s-12.82,29.62-32.39,29.62Z"/>
</svg>